<mxfile host="drawio-plugin" modified="2023-05-18T08:24:33.543Z" agent="5.0 (Macintosh; Intel Mac OS X 10_15_7) AppleWebKit/537.36 (KHTML, like Gecko) Chrome/104.0.5112.102 Safari/537.36" etag="fqW_nBelPzKc7Gj84yfd" version="20.5.3" type="embed"><diagram name="Page-1" id="XdR9-wua3NI8kUUS5KET"><mxGraphModel dx="1331" dy="3319" grid="1" gridSize="10" guides="1" tooltips="1" connect="1" arrows="1" fold="1" page="1" pageScale="1" pageWidth="850" pageHeight="1100" math="0" shadow="0"><root><mxCell id="0"/><mxCell id="1" parent="0"/><mxCell id="3" value="" style="edgeStyle=orthogonalEdgeStyle;rounded=0;orthogonalLoop=1;jettySize=auto;html=1;" edge="1" parent="1" source="Pz3wI5BLNNSJZntPNi-z-4" target="2"><mxGeometry relative="1" as="geometry"/></mxCell><mxCell id="Pz3wI5BLNNSJZntPNi-z-4" value="Start" style="strokeWidth=2;html=1;shape=mxgraph.flowchart.terminator;whiteSpace=wrap;" parent="1" vertex="1"><mxGeometry x="370" y="-2120" width="100" height="60" as="geometry"/></mxCell><mxCell id="8" value="" style="edgeStyle=orthogonalEdgeStyle;rounded=0;orthogonalLoop=1;jettySize=auto;html=1;" edge="1" parent="1" source="2" target="7"><mxGeometry relative="1" as="geometry"/></mxCell><mxCell id="2" value="Check if internal or public" style="whiteSpace=wrap;html=1;strokeWidth=2;" vertex="1" parent="1"><mxGeometry x="360" y="-2040" width="120" height="60" as="geometry"/></mxCell><mxCell id="62" style="edgeStyle=orthogonalEdgeStyle;rounded=0;orthogonalLoop=1;jettySize=auto;html=1;exitX=1;exitY=0.5;exitDx=0;exitDy=0;entryX=1;entryY=0.5;entryDx=0;entryDy=0;entryPerimeter=0;" edge="1" parent="1" source="7" target="61"><mxGeometry relative="1" as="geometry"><Array as="points"><mxPoint x="660" y="-1920"/><mxPoint x="660" y="-1370"/></Array></mxGeometry></mxCell><mxCell id="70" value="" style="edgeStyle=orthogonalEdgeStyle;rounded=0;orthogonalLoop=1;jettySize=auto;html=1;" edge="1" parent="1" source="7" target="69"><mxGeometry relative="1" as="geometry"/></mxCell><mxCell id="73" value="Yes" style="edgeLabel;html=1;align=center;verticalAlign=middle;resizable=0;points=[];" vertex="1" connectable="0" parent="70"><mxGeometry x="0.2" y="2" relative="1" as="geometry"><mxPoint x="-2" y="-4" as="offset"/></mxGeometry></mxCell><mxCell id="7" value="Check if &lt;br&gt;valid" style="rhombus;whiteSpace=wrap;html=1;strokeWidth=2;" vertex="1" parent="1"><mxGeometry x="380" y="-1960" width="80" height="80" as="geometry"/></mxCell><mxCell id="61" value="End" style="strokeWidth=2;html=1;shape=mxgraph.flowchart.terminator;whiteSpace=wrap;" vertex="1" parent="1"><mxGeometry x="370" y="-1400" width="100" height="60" as="geometry"/></mxCell><mxCell id="75" value="" style="edgeStyle=orthogonalEdgeStyle;rounded=0;orthogonalLoop=1;jettySize=auto;html=1;" edge="1" parent="1" source="69" target="74"><mxGeometry relative="1" as="geometry"/></mxCell><mxCell id="78" value="No" style="edgeLabel;html=1;align=center;verticalAlign=middle;resizable=0;points=[];" vertex="1" connectable="0" parent="75"><mxGeometry x="-0.1" y="-1" relative="1" as="geometry"><mxPoint x="-7" y="-1" as="offset"/></mxGeometry></mxCell><mxCell id="80" value="" style="edgeStyle=orthogonalEdgeStyle;rounded=0;orthogonalLoop=1;jettySize=auto;html=1;" edge="1" parent="1" source="69" target="79"><mxGeometry relative="1" as="geometry"/></mxCell><mxCell id="69" value="Check if in scope" style="rhombus;whiteSpace=wrap;html=1;strokeWidth=2;" vertex="1" parent="1"><mxGeometry x="380" y="-1840" width="80" height="80" as="geometry"/></mxCell><mxCell id="76" style="edgeStyle=orthogonalEdgeStyle;rounded=0;orthogonalLoop=1;jettySize=auto;html=1;exitX=0.5;exitY=1;exitDx=0;exitDy=0;entryX=1;entryY=0.5;entryDx=0;entryDy=0;entryPerimeter=0;" edge="1" parent="1" source="74" target="61"><mxGeometry relative="1" as="geometry"/></mxCell><mxCell id="74" value="Inform owner (optional)" style="whiteSpace=wrap;html=1;strokeWidth=2;dashed=1;" vertex="1" parent="1"><mxGeometry x="520" y="-1830" width="120" height="60" as="geometry"/></mxCell><mxCell id="82" value="" style="edgeStyle=orthogonalEdgeStyle;rounded=0;orthogonalLoop=1;jettySize=auto;html=1;" edge="1" parent="1" source="79" target="81"><mxGeometry relative="1" as="geometry"><Array as="points"><mxPoint x="420" y="-1640"/><mxPoint x="340" y="-1640"/></Array></mxGeometry></mxCell><mxCell id="84" style="edgeStyle=orthogonalEdgeStyle;rounded=0;orthogonalLoop=1;jettySize=auto;html=1;exitX=0.5;exitY=1;exitDx=0;exitDy=0;entryX=0.5;entryY=0;entryDx=0;entryDy=0;" edge="1" parent="1" source="79"><mxGeometry relative="1" as="geometry"><mxPoint x="500" y="-1620" as="targetPoint"/></mxGeometry></mxCell><mxCell id="79" value="Check if production system" style="whiteSpace=wrap;html=1;strokeWidth=2;" vertex="1" parent="1"><mxGeometry x="360" y="-1720" width="120" height="60" as="geometry"/></mxCell><mxCell id="89" style="edgeStyle=orthogonalEdgeStyle;rounded=0;orthogonalLoop=1;jettySize=auto;html=1;exitX=0.5;exitY=1;exitDx=0;exitDy=0;entryX=0.5;entryY=0;entryDx=0;entryDy=0;entryPerimeter=0;" edge="1" parent="1" source="81" target="61"><mxGeometry relative="1" as="geometry"><Array as="points"><mxPoint x="340" y="-1420"/><mxPoint x="420" y="-1420"/></Array></mxGeometry></mxCell><mxCell id="81" value="Revoke or rotate credentials" style="whiteSpace=wrap;html=1;strokeWidth=2;" vertex="1" parent="1"><mxGeometry x="280" y="-1560" width="120" height="60" as="geometry"/></mxCell><mxCell id="87" value="" style="edgeStyle=orthogonalEdgeStyle;rounded=0;orthogonalLoop=1;jettySize=auto;html=1;" edge="1" parent="1" source="85" target="86"><mxGeometry relative="1" as="geometry"/></mxCell><mxCell id="88" value="Yes" style="edgeLabel;html=1;align=center;verticalAlign=middle;resizable=0;points=[];" vertex="1" connectable="0" parent="87"><mxGeometry x="-0.1778" y="3" relative="1" as="geometry"><mxPoint x="-3" y="4" as="offset"/></mxGeometry></mxCell><mxCell id="90" style="edgeStyle=orthogonalEdgeStyle;rounded=0;orthogonalLoop=1;jettySize=auto;html=1;exitX=0;exitY=0.5;exitDx=0;exitDy=0;entryX=0.5;entryY=0;entryDx=0;entryDy=0;entryPerimeter=0;" edge="1" parent="1" source="85" target="61"><mxGeometry relative="1" as="geometry"/></mxCell><mxCell id="91" value="No" style="edgeLabel;html=1;align=center;verticalAlign=middle;resizable=0;points=[];" vertex="1" connectable="0" parent="90"><mxGeometry x="-0.8581" y="4" relative="1" as="geometry"><mxPoint x="2" y="-4" as="offset"/></mxGeometry></mxCell><mxCell id="85" value="Analyse Abuse" style="rhombus;whiteSpace=wrap;html=1;" vertex="1" parent="1"><mxGeometry x="460" y="-1620" width="80" height="80" as="geometry"/></mxCell><mxCell id="95" style="edgeStyle=orthogonalEdgeStyle;rounded=0;orthogonalLoop=1;jettySize=auto;html=1;exitX=0.5;exitY=1;exitDx=0;exitDy=0;entryX=0.5;entryY=0;entryDx=0;entryDy=0;entryPerimeter=0;" edge="1" parent="1" source="86" target="61"><mxGeometry relative="1" as="geometry"><mxPoint x="490" y="-1340" as="targetPoint"/><Array as="points"><mxPoint x="500" y="-1420"/><mxPoint x="420" y="-1420"/></Array></mxGeometry></mxCell><mxCell id="86" value="Open Incident" style="whiteSpace=wrap;html=1;" vertex="1" parent="1"><mxGeometry x="440" y="-1500" width="120" height="60" as="geometry"/></mxCell></root></mxGraphModel></diagram></mxfile>